<svg id="Grupo_140" data-name="Grupo 140" xmlns="http://www.w3.org/2000/svg" xmlns:xlink="http://www.w3.org/1999/xlink" width="38.875" height="30.341" viewBox="0 0 38.875 30.341">
  <defs>
    <clipPath id="clip-path">
      <rect id="Rect치ngulo_34" data-name="Rect치ngulo 34" width="38.875" height="30.341" fill="#fff"/>
    </clipPath>
  </defs>
  <rect id="Rect치ngulo_39" data-name="Rect치ngulo 39" width="18.015" height="23.704" transform="translate(11.378 1.896)" fill="#fff"/>
  <g id="Enmascarar_grupo_9" data-name="Enmascarar grupo 9" clip-path="url(#clip-path)">
    <path id="html5" d="M2.365,0A.457.457,0,0,0,1.9.5l2.351,26.37a.789.789,0,0,0,.534.641l9.976,2.77a2.164,2.164,0,0,0,.977,0l10.007-2.775a.789.789,0,0,0,.534-.64L28.636.5a.456.456,0,0,0-.462-.5ZM23.629,6.048,23.544,7l-.062.692c-.025.278-.06.675-.079.882s-.036.378-.04.378H11.026a.457.457,0,0,0-.462.5l.217,2.429a.566.566,0,0,0,.552.5H22.611a.406.406,0,0,1,.411.45c-.023.248-.061.678-.086.956l-.7,7.831c-.025.278-.056.633-.07.789s-.245.344-.514.419l-5.895,1.635-.5.137s-.227-.059-.5-.134l-5.9-1.637a.789.789,0,0,1-.534-.641l-.38-4.264a.457.457,0,0,1,.462-.505h2.356a.566.566,0,0,1,.552.505L11.47,19.6a.782.782,0,0,0,.534.637l2.76.745.492.132.492-.132,2.765-.747a.783.783,0,0,0,.535-.637l.3-3.344a.456.456,0,0,0-.462-.505H8.263a.566.566,0,0,1-.552-.5L6.975,7l-.085-.956a.434.434,0,0,1,.467-.45H23.162A.434.434,0,0,1,23.629,6.048Z" transform="translate(4.168)" fill="#dd512a"/>
  </g>
</svg>
