<svg id="Grupo_25" data-name="Grupo 25" xmlns="http://www.w3.org/2000/svg" xmlns:xlink="http://www.w3.org/1999/xlink" width="38.875" height="30.341" viewBox="0 0 38.875 30.341">
  <defs>
    <clipPath id="clip-path">
      <rect id="Rect치ngulo_40" data-name="Rect치ngulo 40" width="38.875" height="30.341" fill="#fff" stroke="#707070" stroke-width="1"/>
    </clipPath>
  </defs>
  <rect id="Rect치ngulo_34" data-name="Rect치ngulo 34" width="25.601" height="13.274" transform="translate(6.637 7.585)" fill="#fff"/>
  <g id="Enmascarar_grupo_10" data-name="Enmascarar grupo 10" clip-path="url(#clip-path)">
    <g id="icons8-logo-php-filled" transform="translate(0 4.642)">
      <path id="Trazado_55" data-name="Trazado 55" d="M20.292,10.25C9.393,10.25.854,14.875.854,20.779S9.393,31.307,20.292,31.307s19.437-4.625,19.437-10.529S31.19,10.25,20.292,10.25Zm-2.018,3.24H20.4l-.674,3.24h1.895a3.678,3.678,0,0,1,2.468.588,2.075,2.075,0,0,1,.4,2.022l-.842,3.869H21.491l.775-3.578a1.2,1.2,0,0,0-.108-1.012,1.492,1.492,0,0,0-1.066-.269h-1.7l-1.025,4.859H16.242Zm-9.32,3.24h4.318c2.06,0,3.306,1.379,2.819,3.439-.566,2.392-2.085,3.04-4.875,3.04H9.88l-.424,2.43H7.311Zm17.008,0h4.318c2.06,0,3.306,1.379,2.819,3.439-.566,2.392-2.085,3.04-4.875,3.04H26.888l-.424,2.43H24.319Zm-15.17,1.62-.611,3.24h1.386c1.2,0,2.313-.136,2.5-1.923.07-.693-.218-1.316-1.6-1.316Zm17.008,0-.611,3.24h1.386c1.2,0,2.313-.136,2.5-1.923.07-.693-.218-1.316-1.6-1.316Z" transform="translate(-0.854 -10.25)" fill="#2980b9"/>
    </g>
  </g>
</svg>
