<svg xmlns="http://www.w3.org/2000/svg" xmlns:xlink="http://www.w3.org/1999/xlink" width="38.875" height="30.341" viewBox="0 0 38.875 30.341">
  <defs>
    <clipPath id="clip-path">
      <rect id="Rectángulo_35" data-name="Rectángulo 35" width="38.875" height="30.341" fill="#fff"/>
    </clipPath>
  </defs>
  <g id="Enmascarar_grupo_6" data-name="Enmascarar grupo 6" transform="translate(0)" clip-path="url(#clip-path)">
    <g id="_68747470733a2f2f63646e2e7261776769742e636f6d2f7075676a732f7075672d6c6f676f2f65656334333663656538666439643137323664373833396362653939643166363934363932" data-name="68747470733a2f2f63646e2e7261776769742e636f6d2f7075676a732f7075672d6c6f676f2f65656334333663656538666439643137323664373833396362653939643166363934363932" transform="translate(0 3.213)">
      <path id="Trazado_16" data-name="Trazado 16" d="M32.924,15.88c-.061-1.335.121-2.518-.485-3.52-1.456-2.488-5.1-3.944-12.379-3.944v.212h0V8.416c-7.282,0-11.105,1.456-12.561,3.975a8.106,8.106,0,0,0-.607,3.52c-.061,1.062-.546,2.185-.334,3.4.243,1.578.334,3.156.576,4.612.182,1.183,1.82,2.185,1.972,3.307.425,3.095,3.641,4.521,10.923,4.521v.243h.03v-.243c7.282,0,10.377-1.426,10.771-4.521.152-1.153,1.669-2.124,1.851-3.307.243-1.456.334-3.034.576-4.612C33.47,18.1,32.985,16.942,32.924,15.88Z" transform="translate(-0.394 -8.416)" fill="#efcca3"/>
      <path id="Trazado_17" data-name="Trazado 17" d="M20.669,17.44a4.822,4.822,0,0,1,3.065,1.608c1,.88,2.7,1.487,3.4,2.245a6.88,6.88,0,0,1,1.942,2.7,14.033,14.033,0,0,1,.425,3.095c0,.394.212.3.819,0a12.059,12.059,0,0,0,3-2.579c-.182,1.183-1.729,2.245-1.881,3.368-.364,3.095-3.368,4.582-10.8,4.582h.152" transform="translate(-1.125 -8.884)" fill="#ccac8d"/>
      <path id="Trazado_18" data-name="Trazado 18" d="M25.693,14.9c.273.941,1.244,4.126-.637,3.065a3.607,3.607,0,0,1,1.274,2.185,2.521,2.521,0,0,0,1.76,1.942,4.583,4.583,0,0,0,3.55-.91,4.165,4.165,0,0,0,.941-4.521,3.39,3.39,0,0,0-2.943-2.215C28.212,14.114,25.36,13.841,25.693,14.9Z" transform="translate(-1.356 -8.713)" fill="#ccac8d"/>
      <g id="Grupo_14" data-name="Grupo 14" transform="translate(25.278 6.979)">
        <circle id="Elipse_1" data-name="Elipse 1" cx="2.67" cy="2.67" r="2.67"/>
        <circle id="Elipse_2" data-name="Elipse 2" cx="0.698" cy="0.698" r="0.698" transform="translate(1.274 0.789)" fill="#fff"/>
      </g>
      <path id="Trazado_19" data-name="Trazado 19" d="M25.205,18.464a21.012,21.012,0,0,1,3.7,3.247c1.3,1.608,1.274,1.912,1.274,1.912l-.941.425a10.215,10.215,0,0,0-2.973-3.459c-1.669-.941-1.851-1.729-1.851-1.729Z" transform="translate(-1.323 -8.937)" fill="#efcca3"/>
      <path id="Trazado_20" data-name="Trazado 20" d="M20.065,17.44a5.125,5.125,0,0,0-3.156,1.608c-1,.88-2.761,1.487-3.459,2.245a6.941,6.941,0,0,0-1.972,2.7,14.586,14.586,0,0,0-.455,3.095c0,.394.061.425-.819,0a11.438,11.438,0,0,1-3-2.579c.182,1.183,1.729,2.245,1.881,3.368.425,3.095,3.429,4.582,10.862,4.582H20.1" transform="translate(-0.43 -8.884)" fill="#ccac8d"/>
      <path id="Trazado_21" data-name="Trazado 21" d="M27.345,22.659A8.96,8.96,0,0,0,20.305,19.2h-.03a8.96,8.96,0,0,0-7.039,3.459c-1.517,1.851-1.4,2.579-1.4,4.339,0,6.372,2.245,4.551,3.732,5.34,1.517.759,3.095.516,4.7.516h.03c1.638,0,3.186.212,4.7-.546,1.487-.759,3.732,1.123,3.732-5.249C28.771,25.3,28.862,24.51,27.345,22.659Z" transform="translate(-0.671 -8.975)" fill="#56332b"/>
      <path id="Trazado_22" data-name="Trazado 22" d="M20.573,20.864s-.212,2.943-.637,3.52l.789-.182Z" transform="translate(-1.09 -9.061)" fill="#442823"/>
      <path id="Trazado_23" data-name="Trazado 23" d="M20.824,20.864s.212,2.943.637,3.52l-.789-.182Z" transform="translate(-1.129 -9.061)" fill="#442823"/>
      <path id="Trazado_24" data-name="Trazado 24" d="M18.141,20.027c-.3-.7.789-1.82,2.518-1.851,1.729,0,2.822,1.123,2.518,1.851s-1.4.941-2.518.971C19.567,20.968,18.445,20.755,18.141,20.027Z" transform="translate(-0.995 -8.922)" fill="#56332b"/>
      <path id="Trazado_25" data-name="Trazado 25" d="M20.7,20.821c0-.121,1.032-.152,1.578-.516,0,0-1.123.364-1.365.212a.733.733,0,0,1-.3-.485.992.992,0,0,1-.273.485,4.988,4.988,0,0,1-1.487-.212,12.082,12.082,0,0,1,1.7.516c0,.091-.03.394-.03.607a17.2,17.2,0,0,0,.121,2.791c.182.273.121-2.033.121-2.791C20.729,21.185,20.729,20.942,20.7,20.821Z" transform="translate(-1.034 -9.018)"/>
      <path id="Trazado_26" data-name="Trazado 26" d="M20.727,25.122a4.733,4.733,0,0,1,2.245.941,4.1,4.1,0,0,0-2.245-1.487,4.5,4.5,0,0,0-2.518,1.638A4.985,4.985,0,0,1,20.727,25.122Z" transform="translate(-1.001 -9.254)" fill="#7f4a41"/>
      <path id="Trazado_27" data-name="Trazado 27" d="M20.184,30.6a13.041,13.041,0,0,1-3.307-.637c-.212-.061-.425.091-.637.03a8.521,8.521,0,0,1-4.4-2.943v.3c0,6.372,2.245,4.582,3.732,5.34,1.517.759,3.095.516,4.7.516h.03c1.638,0,3.186.212,4.7-.546,1.487-.759,3.732,1.092,3.732-5.279a5.143,5.143,0,0,1,.03-.7A8.213,8.213,0,0,1,24.28,29.9c-.182.061-.607-.091-.789-.061A9.942,9.942,0,0,1,20.184,30.6Z" transform="translate(-0.671 -9.363)" fill="#442823"/>
      <path id="Trazado_28" data-name="Trazado 28" d="M17.549,27.2s-.759,2.276-.243,3.277l-.7-.3A15.42,15.42,0,0,1,17.549,27.2Z" transform="translate(-0.918 -9.39)" fill="#442823"/>
      <path id="Trazado_29" data-name="Trazado 29" d="M23.936,27.2s.759,2.276.243,3.277l.7-.3A17.976,17.976,0,0,0,23.936,27.2Z" transform="translate(-1.298 -9.39)" fill="#442823"/>
      <path id="Trazado_30" data-name="Trazado 30" d="M15.16,14.9c-.273.941-1.244,4.126.637,3.065a3.607,3.607,0,0,0-1.274,2.185,2.476,2.476,0,0,1-1.76,1.942,4.583,4.583,0,0,1-3.55-.91,4.165,4.165,0,0,1-.941-4.521c.546-1.487,1.517-1.912,2.943-2.215C12.642,14.114,15.464,13.841,15.16,14.9Z" transform="translate(-0.471 -8.713)" fill="#ccac8d"/>
      <path id="Trazado_31" data-name="Trazado 31" d="M20.582,24.563c.819,0,3.368,1.76,3.4,3.914v-.121c0-2.245-2.063-4.035-3.4-4.035s-3.4,1.82-3.4,4.035v.121C17.214,26.323,19.763,24.563,20.582,24.563Z" transform="translate(-0.948 -9.24)"/>
      <g id="Grupo_15" data-name="Grupo 15" transform="translate(18.506 10.176)">
        <ellipse id="Elipse_3" data-name="Elipse 3" cx="0.243" cy="0.455" rx="0.243" ry="0.455" transform="translate(1.329 0.125) rotate(-14.46)" fill="#331712"/>
        <ellipse id="Elipse_4" data-name="Elipse 4" cx="0.243" cy="0.455" rx="0.243" ry="0.455" transform="matrix(0.955, 0.296, -0.296, 0.955, 0.27, 0)" fill="#331712"/>
      </g>
      <g id="Grupo_16" data-name="Grupo 16" transform="translate(8.56 6.979)">
        <circle id="Elipse_5" data-name="Elipse 5" cx="2.67" cy="2.67" r="2.67"/>
        <circle id="Elipse_6" data-name="Elipse 6" cx="0.698" cy="0.698" r="0.698" transform="translate(2.67 0.789)" fill="#fff"/>
      </g>
      <g id="Grupo_17" data-name="Grupo 17" transform="translate(18.664 9.677)">
        <path id="Trazado_32" data-name="Trazado 32" d="M21.5,18.624c0-.03-.7.3-.88.334-.182-.03-.88-.364-.88-.334H21.5Z" transform="translate(-19.744 -18.622)" fill="#7f4a41"/>
      </g>
      <path id="Trazado_33" data-name="Trazado 33" d="M15.728,18.464a21.012,21.012,0,0,0-3.7,3.247c-1.3,1.608-1.274,1.912-1.274,1.912l.941.425a10.215,10.215,0,0,1,2.973-3.459c1.638-.941,1.851-1.729,1.851-1.729Z" transform="translate(-0.614 -8.937)" fill="#efcca3"/>
      <path id="Trazado_34" data-name="Trazado 34" d="M10.32,13.344A6.475,6.475,0,0,1,7.68,16.53,2.95,2.95,0,0,0,10.32,13.344Z" transform="translate(-0.455 -8.671)" fill="#ccac8d"/>
      <path id="Trazado_35" data-name="Trazado 35" d="M30.656,13.344A6.475,6.475,0,0,0,33.3,16.53,2.95,2.95,0,0,1,30.656,13.344Z" transform="translate(-1.645 -8.671)" fill="#ccac8d"/>
      <path id="Trazado_36" data-name="Trazado 36" d="M24.73,17.654a6.726,6.726,0,0,0-4.187-1.942H20.6a6.621,6.621,0,0,0-4.187,1.942A7.238,7.238,0,0,1,20.6,16.228h0A7.8,7.8,0,0,1,24.73,17.654Z" transform="translate(-0.908 -8.794)" fill="#ccac8d"/>
      <path id="Trazado_37" data-name="Trazado 37" d="M22.749,13.529a3.2,3.2,0,0,0-2.124-1.3h.061c-.91.03-2.094,1.3-2.094,1.3a3.145,3.145,0,0,1,2.094-.971h0A3.153,3.153,0,0,1,22.749,13.529Z" transform="translate(-1.021 -8.613)" fill="#ccac8d"/>
      <path id="Trazado_38" data-name="Trazado 38" d="M11.693,23.326a3.586,3.586,0,0,1-2.458.273h-.03A4.061,4.061,0,0,1,7.84,21.536,2.931,2.931,0,0,0,11.693,23.326Z" transform="translate(-0.463 -9.096)" fill="#ccac8d"/>
      <path id="Trazado_39" data-name="Trazado 39" d="M29.44,23.326A3.586,3.586,0,0,0,31.9,23.6h0a2.733,2.733,0,0,0,1.4-2.063A2.931,2.931,0,0,1,29.44,23.326Z" transform="translate(-1.583 -9.096)" fill="#ccac8d"/>
      <g id="Grupo_18" data-name="Grupo 18" transform="translate(12.868 4.28)">
        <path id="Trazado_40" data-name="Trazado 40" d="M13.632,13.171a6.959,6.959,0,0,1,3.125.152c1.3.455.243,2.124.516,2.215s.637-1.153,3.065-1.032c2.458.121,2.731,1.214,3.065,1.032s-.334-3.034,3.338-2.367c0,0-3.853-1.032-3.671,1.76a5.163,5.163,0,0,0-5.31-.182C17.789,14.749,18.578,12.139,13.632,13.171Z" transform="translate(-13.632 -12.93)" fill="#ccac8d"/>
      </g>
      <path id="Trazado_41" data-name="Trazado 41" d="M27.808,13.184c.061,0,.091.03.121.03S27.9,13.184,27.808,13.184Z" transform="translate(-1.498 -8.663)" fill="#ccac8d"/>
      <path id="Trazado_42" data-name="Trazado 42" d="M27.808,13.184Z" transform="translate(-1.498 -8.663)" fill="#ccac8d"/>
      <path id="Trazado_43" data-name="Trazado 43" d="M12.154,9.248s-3.277,4.126-3.762,5.7c-.485,1.608-.85,8.192-1.274,9.133L5.6,17.592l2.791-6.766Z" transform="translate(-0.347 -8.459)" fill="#ccac8d"/>
      <path id="Trazado_44" data-name="Trazado 44" d="M28.768,9.248s3.277,4.126,3.762,5.7c.485,1.608.85,8.192,1.274,9.133l1.517-6.493-2.791-6.766Z" transform="translate(-1.548 -8.459)" fill="#ccac8d"/>
      <path id="Trazado_45" data-name="Trazado 45" d="M28.608,9.242s3.52,2.943,4.551,6.341.607,7.525,1.4,8.041c1.123.728,2.4-3.611,2.822-4.066.668-.728,2.882-2.579,3.034-2.913s-4.491-5.4-6.523-6.4C31.429,9.09,28.4,9,28.608,9.242Z" transform="translate(-1.539 -8.453)" fill="#56332b"/>
      <path id="Trazado_46" data-name="Trazado 46" d="M31.776,11.168a21.255,21.255,0,0,1,4.1,11.924l1.669-3.4A24.94,24.94,0,0,0,31.776,11.168Z" transform="translate(-1.704 -8.559)" fill="#442823"/>
      <path id="Trazado_47" data-name="Trazado 47" d="M11.867,9.242s-3.52,2.943-4.551,6.341-.607,7.525-1.4,8.041c-1.123.728-2.4-3.611-2.822-4.066C2.43,18.83.216,16.979.064,16.645s4.491-5.4,6.523-6.4C9.045,9.09,12.079,9,11.867,9.242Z" transform="translate(-0.06 -8.453)" fill="#56332b"/>
      <path id="Trazado_48" data-name="Trazado 48" d="M9.031,11.168a21.255,21.255,0,0,0-4.1,11.924L3.3,19.694A24.028,24.028,0,0,1,9.031,11.168Z" transform="translate(-0.228 -8.559)" fill="#442823"/>
      <path id="Trazado_49" data-name="Trazado 49" d="M6.976,23.8a6.071,6.071,0,0,0,.789,2.154c.485.516.152-.394.152-.394s-.516-.273-.425-2.367S6.976,23.8,6.976,23.8Z" transform="translate(-0.419 -9.141)" fill="#ccac8d"/>
      <path id="Trazado_50" data-name="Trazado 50" d="M34.215,23.8a6.071,6.071,0,0,1-.789,2.154c-.485.516-.152-.394-.152-.394s.516-.273.425-2.367S34.215,23.8,34.215,23.8Z" transform="translate(-1.776 -9.141)" fill="#ccac8d"/>
      <g id="Grupo_19" data-name="Grupo 19" transform="translate(14.386 13.168)">
        <circle id="Elipse_7" data-name="Elipse 7" cx="0.243" cy="0.243" r="0.243" transform="translate(1.851)" fill="#442823"/>
        <circle id="Elipse_8" data-name="Elipse 8" cx="0.243" cy="0.243" r="0.243" transform="translate(0.455 1.456)" fill="#442823"/>
        <circle id="Elipse_9" data-name="Elipse 9" cx="0.243" cy="0.243" r="0.243" fill="#442823"/>
      </g>
      <g id="Grupo_20" data-name="Grupo 20" transform="translate(22.153 13.168)">
        <circle id="Elipse_10" data-name="Elipse 10" cx="0.243" cy="0.243" r="0.243" fill="#442823"/>
        <circle id="Elipse_11" data-name="Elipse 11" cx="0.243" cy="0.243" r="0.243" transform="translate(1.396 1.456)" fill="#442823"/>
        <circle id="Elipse_12" data-name="Elipse 12" cx="0.243" cy="0.243" r="0.243" transform="translate(1.851)" fill="#442823"/>
      </g>
    </g>
  </g>
</svg>
