<svg xmlns="http://www.w3.org/2000/svg" xmlns:xlink="http://www.w3.org/1999/xlink" width="38.875" height="30.341" viewBox="0 0 38.875 30.341">
  <defs>
    <clipPath id="clip-path">
      <rect id="Rectángulo_42" data-name="Rectángulo 42" width="38.875" height="30.341" fill="#fff" stroke="#707070" stroke-width="1"/>
    </clipPath>
  </defs>
  <g id="Enmascarar_grupo_12" data-name="Enmascarar grupo 12" transform="translate(0)" clip-path="url(#clip-path)">
    <g id="icons8-logo-de-mysql-filled" transform="translate(0 4.675)">
      <path id="Trazado_64" data-name="Trazado 64" d="M24.231,6.559a.818.818,0,0,0-.847.534c-.279.677.416,1.339.665,1.685a5.143,5.143,0,0,1,.522.78c.082.179.094.358.164.547a14.208,14.208,0,0,0,.671,1.424,4.8,4.8,0,0,0,.38.641c.088.118.237.173.261.355a2.94,2.94,0,0,0-.237.787,4.549,4.549,0,0,0,.307,3.486c.167.267.559.835,1.093.62.468-.191.364-.784.5-1.309.03-.115.012-.2.073-.282v.024c.14.285.282.571.425.853a5.944,5.944,0,0,0,1.354,1.4c.246.185.44.507.759.616V18.7H30.3c-.061-.1-.158-.137-.237-.213a5.266,5.266,0,0,1-.544-.62,14.037,14.037,0,0,1-1.163-1.9c-.167-.319-.313-.671-.453-1-.055-.127-.055-.316-.167-.383a4.664,4.664,0,0,0-.5.714,6.151,6.151,0,0,0-.285,1.567c-.043.015-.024,0-.046.024-.331-.082-.45-.422-.571-.714a4.47,4.47,0,0,1-.094-2.776c.07-.222.389-.914.261-1.118-.061-.2-.267-.319-.38-.474a3.59,3.59,0,0,1-.38-.665c-.255-.577-.495-1.245-.765-1.828a5.165,5.165,0,0,0-.522-.808,4.683,4.683,0,0,1-.571-.808c-.052-.115-.128-.3-.046-.425a.186.186,0,0,1,.143-.143c.137-.106.519.033.665.094a5.854,5.854,0,0,1,1.02.522c.155.1.31.3.5.358h.213c.337.076.711.021,1.02.118a6.117,6.117,0,0,1,1.494.711A9.213,9.213,0,0,1,32.142,12.5c.124.237.179.465.288.714.216.5.492,1.026.711,1.518a6.958,6.958,0,0,0,.735,1.4c.161.216.787.334,1.069.452a6.557,6.557,0,0,1,.711.285c.361.216.708.474,1.045.714.17.118.686.377.714.592a4.774,4.774,0,0,0-2.016.285c-.155.067-.4.067-.428.261.082.088.1.222.164.331a2.637,2.637,0,0,0,.547.641c.216.161.434.334.665.477.407.246.862.389,1.257.638.231.149.465.334.689.5.112.085.185.213.331.264v-.024c-.076-.1-.094-.231-.164-.331l-.313-.313a5.072,5.072,0,0,0-1.09-1.042c-.325-.234-1.051-.55-1.184-.926l-.024-.024a4.939,4.939,0,0,0,.711-.167c.358-.094.674-.07,1.042-.164.167-.049.334-.1.5-.143v-.1c-.185-.188-.319-.443-.522-.617a15.114,15.114,0,0,0-1.71-1.282c-.331-.21-.741-.346-1.09-.522-.118-.061-.325-.091-.4-.191a4.953,4.953,0,0,1-.428-.8c-.3-.574-.589-1.2-.853-1.8a9.747,9.747,0,0,0-.522-1.187,10.49,10.49,0,0,0-4.036-3.893,4.793,4.793,0,0,0-1.327-.425c-.264-.018-.522-.033-.787-.049a3.964,3.964,0,0,1-.474-.358A3.873,3.873,0,0,0,24.231,6.559ZM26.8,9.135a1.767,1.767,0,0,0-.428.049v.024H26.4a3.082,3.082,0,0,0,.334.425c.079.167.155.334.234.5l.024-.024a.586.586,0,0,0,.216-.522c-.061-.061-.07-.14-.118-.213C27.019,9.274,26.888,9.22,26.8,9.135ZM1.451,19a2.9,2.9,0,0,0-.765.143A.884.884,0,0,0,0,20.116V26H1.555V20.259l2.159,4.9a1.245,1.245,0,0,0,1.345.829,1.228,1.228,0,0,0,1.333-.829l2.159-4.78V26h1.555V20.116a.881.881,0,0,0-.689-.978c-1.105-.349-1.849-.049-2.184.708L5.017,24.832,2.873,19.846A1.371,1.371,0,0,0,1.451,19ZM20.4,19c-.613,0-2.524.073-2.524,1.555v.96c0,.68.6,1.236,1.9,1.373.146.009.292.021.437.021,0,0,1.512-.03,1.555-.021.875,0,.777.68.777.777v.777a.736.736,0,0,1-.787.777H17.881V26h3.893a3.36,3.36,0,0,0,1.4-.292,1.318,1.318,0,0,0,.926-1.242V23.35c0-1.194-1.482-1.242-2.332-1.242H20.213c-.61,0-.7-.371-.777-.777v-.777c.073-.31.21-.729.75-.777H24.1V19Zm6.013,0c-1.148.158-1.552.729-1.552,1.555v3.887c0,.756.422,1.212,1.291,1.449a2.939,2.939,0,0,0,.8.115L28.692,26h1.017l.866.777h1.749l-1.2-1.084a1.14,1.14,0,0,0,.741-1.263V20.553c0-.826-.538-1.4-1.685-1.555Zm6.235,0v5.409c0,.938.531,1.467,1.938,1.573.131.006.264.015.395.015h3.887v-.777H35.279c-.8,0-1.072-.337-1.072-.817V19Zm-5.308.777h2a1.017,1.017,0,0,1,.963.777s.012,3.62.012,3.887a.509.509,0,0,1-.149.389l-.422-.389H27.988l.866.777H27.344a.936.936,0,0,1-.923-.777V20.632A.868.868,0,0,1,27.344,19.776Zm-16.46,1.555c.03.03,0,3.313,0,3.377.012.68.875,1.275,2.226,1.288h2.439v.052c0,.146.106.632-.777.726H10.884v.777h4.054c.686-.021,2.174-.176,2.165-1.367,0-.021.006-4.853,0-4.853H15.549v3.887c-.024,0-1.925.006-2.308,0-.75-.012-.814-.44-.8-.6V21.331Z" transform="translate(0.003 -6.559)" fill="#2980b9"/>
    </g>
  </g>
</svg>
