<svg xmlns="http://www.w3.org/2000/svg" xmlns:xlink="http://www.w3.org/1999/xlink" width="38.875" height="30.341" viewBox="0 0 38.875 30.341">
  <defs>
    <clipPath id="clip-path">
      <rect id="Rectángulo_33" data-name="Rectángulo 33" width="38.875" height="30.341" fill="#fff"/>
    </clipPath>
  </defs>
  <g id="Enmascarar_grupo_8" data-name="Enmascarar grupo 8" transform="translate(0)" clip-path="url(#clip-path)">
    <g id="sass" transform="translate(4.267)">
      <path id="Trazado_53" data-name="Trazado 53" d="M30.341,15.171q0,.7-.063,1.39-.048.543-.136,1.074a15.181,15.181,0,1,1,.2-2.463Z" fill="#f2f2f2"/>
      <path id="Trazado_54" data-name="Trazado 54" d="M26.553,17.033c-.46.174-.441.177-.685-.266a3.848,3.848,0,0,1-.49-1.8,4.182,4.182,0,0,1,.331-1.575c.152-.4-.046-.544-.394-.58a3.793,3.793,0,0,0-.768,0c-.66.067-.725.124-.9.765a6.526,6.526,0,0,1-.36,1.124c-.426.889-.91,1.744-1.407,2.594a2.224,2.224,0,0,1-.289.448,3.363,3.363,0,0,1-.526-1.758,4.459,4.459,0,0,1,.366-1.755.276.276,0,0,0-.153-.391.663.663,0,0,0-.235-.077,3.576,3.576,0,0,0-1.259.087.437.437,0,0,0-.349.364A5.557,5.557,0,0,1,19.06,15.4q-.706,1.585-1.408,3.172c-.409.918-.811,1.839-1.3,2.721-.034.063-.063.171-.148.149s-.056-.128-.06-.2a5.222,5.222,0,0,1,.235-1.513c.191-.786.4-1.568.6-2.351a.4.4,0,0,0-.226-.484.688.688,0,0,0-.825.054,5.054,5.054,0,0,0,.043-.88,1.06,1.06,0,0,0-.825-1.126,1.7,1.7,0,0,0-1.046.194,5.283,5.283,0,0,0-1.9,1.577.69.69,0,0,1-.21.2q-1.461.8-2.919,1.6a.177.177,0,0,1-.252-.04,13.575,13.575,0,0,0-1.619-1.4A17.97,17.97,0,0,1,4.926,15.13a3.744,3.744,0,0,1-.892-1.482,3.4,3.4,0,0,1,.381-2.64A7.85,7.85,0,0,1,6.606,8.593,21.113,21.113,0,0,1,11.1,5.971a12.687,12.687,0,0,1,5.619-1.212,4.949,4.949,0,0,1,2.24.549,1.662,1.662,0,0,1,.913,1.238,3.029,3.029,0,0,1-.352,1.886,7.307,7.307,0,0,1-2.985,2.983,9.922,9.922,0,0,1-3.366,1.2,6.214,6.214,0,0,1-1.985.079A3.066,3.066,0,0,1,9.2,11.709a.186.186,0,0,0-.238-.07c-.1.051-.1.144-.087.233a.806.806,0,0,0,.046.181,2.138,2.138,0,0,0,.705.907,4.26,4.26,0,0,0,2.722.855,11.286,11.286,0,0,0,2.86-.329,8.655,8.655,0,0,0,5.2-3.336,5.7,5.7,0,0,0,1.225-3.59A3.141,3.141,0,0,0,20.7,4.339a5.256,5.256,0,0,0-2.643-1.313,9.831,9.831,0,0,0-3.325-.145,13.72,13.72,0,0,0-2.852.635,25.447,25.447,0,0,0-4.1,1.818A17.572,17.572,0,0,0,4.062,8.007,8.849,8.849,0,0,0,1.76,11.3a3.019,3.019,0,0,0-.213,1.729A4.878,4.878,0,0,0,2.6,15.076,13.716,13.716,0,0,0,5.254,17.4c.771.554,1.578,1.058,2.318,1.653.21.168.209.168-.038.3-.289.15-.58.3-.864.456a12.627,12.627,0,0,0-3.151,2.322,3.568,3.568,0,0,0-.886,1.617,15.219,15.219,0,0,0,2.6,2.962,5.033,5.033,0,0,0,3.928-2.458,5.043,5.043,0,0,0,.757-2.329,5.444,5.444,0,0,0-.22-2.154c-.038-.124-.178-.247-.123-.356s.206-.151.32-.217c.459-.267.92-.53,1.393-.8a.406.406,0,0,1-.037.225,6.533,6.533,0,0,0-.254,3.032,4.222,4.222,0,0,0,.748,1.783,1.147,1.147,0,0,0,1.73-.015,8.257,8.257,0,0,0,.846-1.546c.136-.292.261-.589.391-.885a9.865,9.865,0,0,0-.01,1.048,2.037,2.037,0,0,0,.245.978.713.713,0,0,0,.986.274,2.188,2.188,0,0,0,.868-.9A42.039,42.039,0,0,0,19.2,17.548c.146-.355.3-.709.461-1.1.025.129.042.209.058.288a7.548,7.548,0,0,0,.816,2.256.32.32,0,0,1-.032.4c-.362.492-.758.955-1.149,1.424a12.252,12.252,0,0,0-.957,1.2.533.533,0,0,0,.308.878,1.771,1.771,0,0,0,.393.033,4.133,4.133,0,0,0,2.014-.579,2.326,2.326,0,0,0,1.311-2.173,3.44,3.44,0,0,0-.316-1.3.22.22,0,0,1,.018-.246,24.134,24.134,0,0,0,1.564-2.6,2.261,2.261,0,0,1,.277-.487c.018.063.032.1.04.142a7.027,7.027,0,0,0,.731,2.133c.1.181.052.274-.092.4a5.685,5.685,0,0,0-1.24,1.473,2.775,2.775,0,0,0-.428,1.416.757.757,0,0,0,.993.772,4.42,4.42,0,0,0,1.6-.727,2.24,2.24,0,0,0,1.029-2.71c-.129-.445-.126-.438.32-.573a6.5,6.5,0,0,1,2.963-.145q.169.028.334.064.087-.53.136-1.074A6.315,6.315,0,0,0,26.553,17.033ZM5.92,25a2.115,2.115,0,0,1-.878.12.676.676,0,0,1-.637-.692,2.487,2.487,0,0,1,.309-1.274,5.209,5.209,0,0,1,1.6-1.713,18.4,18.4,0,0,1,1.92-1.271c.2-.119.2-.118.249.121a3.528,3.528,0,0,1,.093.89A4.115,4.115,0,0,1,5.92,25Zm9.089-8.408a10.279,10.279,0,0,1-.58,2.033c-.333.9-.658,1.81-1.077,2.678a2.1,2.1,0,0,1-.352.562c-.147.154-.277.136-.378-.052a2.679,2.679,0,0,1-.206-1.074,6.189,6.189,0,0,1,1.334-3.805,1.668,1.668,0,0,1,.914-.653C14.928,16.212,15.05,16.319,15.009,16.591Zm5.771,4.414a2.781,2.781,0,0,1-1.188,1.1c-.053.027-.122.074-.17.011s.028-.1.061-.135c.5-.542.986-1.088,1.427-1.676.007-.009.024-.011.061-.027A1.461,1.461,0,0,1,20.78,21.005Zm3.425-.021c-.074.035-.159.1-.231.044s-.048-.17-.024-.253a4.43,4.43,0,0,1,.474-1.078,3.987,3.987,0,0,1,.633-.764c.1-.093.14-.082.173.052a1.817,1.817,0,0,1,.04.413A1.668,1.668,0,0,1,24.2,20.984Z" transform="translate(-0.077 -0.145)" fill="#cd6699"/>
    </g>
  </g>
</svg>
